<?xml version="1.0" encoding="UTF-8" standalone="no"?><!DOCTYPE svg PUBLIC "-//W3C//DTD SVG 1.1//EN" "http://www.w3.org/Graphics/SVG/1.1/DTD/svg11.dtd"><svg width="100%" height="100%" viewBox="0 0 2084 2084" version="1.1" xmlns="http://www.w3.org/2000/svg" xmlns:xlink="http://www.w3.org/1999/xlink" xml:space="preserve" xmlns:serif="http://www.serif.com/" style="fill-rule:evenodd;clip-rule:evenodd;stroke-linejoin:round;stroke-miterlimit:2;"><path d="M2069.2,527.899c0,-283.556 -230.211,-513.768 -513.768,-513.768l-1027.54,0c-283.556,0 -513.768,230.212 -513.768,513.768l0,1027.54c0,283.557 230.212,513.768 513.768,513.768l1027.54,0c283.557,0 513.768,-230.211 513.768,-513.768l0,-1027.54Z" style="fill:#ebebeb;"/><rect x="-0" y="0" width="2083.33" height="2083.33" style="fill:url(#_Linear1);"/><path d="M589.175,629.716c-66.26,21.797 -117.482,57.761 -153.664,107.892c-36.182,50.132 -54.273,112.251 -54.273,186.359c0,33.13 3.052,55.798 9.155,68.004c6.103,12.206 9.154,19.617 9.154,22.232c-93.288,0 -139.932,-39.669 -139.932,-119.008c0,-54.054 20.707,-108.327 62.12,-162.818c41.413,-54.491 94.596,-98.955 159.549,-133.393c64.953,-34.439 129.688,-51.658 194.205,-51.658c32.258,0 65.389,6.103 99.391,18.309l-30.079,689.2l287.711,-689.2l188.32,0l-137.316,962.525l-188.321,0l83.698,-587.192l-245.862,587.192l-179.166,0l26.156,-589.808l-218.399,589.808l-104.622,0l332.175,-898.444Z" style="fill:#fef4ff;fill-rule:nonzero;"/><path d="M1355.53,1536.01c-49.696,-0 -91.109,-17.001 -124.239,-51.003c-33.131,-34.003 -49.696,-87.186 -49.696,-159.549c-0,-64.517 12.86,-132.304 38.579,-203.36c25.72,-71.056 64.082,-131.214 115.085,-180.473c51.003,-49.26 111.815,-73.89 182.435,-73.89c35.746,0 62.338,6.103 79.775,18.309c17.437,12.206 26.155,28.335 26.155,48.388l0,9.154l14.386,-69.312l188.32,0l-94.16,444.645c-3.488,13.078 -5.231,27.027 -5.231,41.849c-0,17.437 4.141,29.861 12.424,37.271c8.282,7.411 22.014,11.116 41.195,11.116c12.206,0 21.796,-1.743 28.771,-5.231c-19.181,48.824 -37.49,83.044 -54.927,102.661c-17.437,19.617 -42.721,29.425 -75.851,29.425c-35.746,-0 -64.735,-10.68 -86.967,-32.041c-22.233,-21.36 -35.964,-51.221 -41.195,-89.582c-53.183,81.082 -118.136,121.623 -194.859,121.623Zm85.005,-126.855c21.796,0 43.375,-10.244 64.735,-30.732c21.361,-20.489 35.964,-48.606 43.811,-84.352l62.773,-295.558c0,-11.334 -4.359,-22.45 -13.078,-33.348c-8.718,-10.899 -22.232,-16.348 -40.541,-16.348c-34.874,0 -66.261,20.271 -94.16,60.812c-27.899,40.541 -49.695,89.365 -65.389,146.471c-15.693,57.107 -23.54,107.456 -23.54,151.049c0,43.592 6.321,71.492 18.963,83.698c12.642,12.205 28.117,18.308 46.426,18.308Z" style="fill:#fef4ff;fill-rule:nonzero;"/><defs><linearGradient id="_Linear1" x1="0" y1="0" x2="1" y2="0" gradientUnits="userSpaceOnUse" gradientTransform="matrix(2083.33,2083.33,-2083.33,2083.33,-3.81917e-14,8.88178e-16)"><stop offset="0" style="stop-color:#a770ef;stop-opacity:1"/><stop offset="0.5" style="stop-color:#cf8bf3;stop-opacity:1"/><stop offset="1" style="stop-color:#fdb99b;stop-opacity:1"/></linearGradient></defs></svg>